<?xml version="1.0" encoding="UTF-8" standalone="no"?>
<!-- Created with Inkscape (http://www.inkscape.org/) -->

<svg
   xmlns:dc="http://purl.org/dc/elements/1.1/"
   xmlns:cc="http://creativecommons.org/ns#"
   xmlns:rdf="http://www.w3.org/1999/02/22-rdf-syntax-ns#"
   xmlns:svg="http://www.w3.org/2000/svg"
   xmlns="http://www.w3.org/2000/svg"
   xmlns:sodipodi="http://sodipodi.sourceforge.net/DTD/sodipodi-0.dtd"
   xmlns:inkscape="http://www.inkscape.org/namespaces/inkscape"
   width="210mm"
   height="297mm"
   viewBox="0 0 210 297"
   version="1.1"
   id="svg8"
   inkscape:version="0.92.4 (5da689c313, 2019-01-14)"
   sodipodi:docname="logo.svg">
  <defs
     id="defs2" />
  <sodipodi:namedview
     id="base"
     pagecolor="#ffffff"
     bordercolor="#666666"
     borderopacity="1.0"
     inkscape:pageopacity="0.0"
     inkscape:pageshadow="2"
     inkscape:zoom="0.8536924"
     inkscape:cx="385.69521"
     inkscape:cy="772.69119"
     inkscape:document-units="mm"
     inkscape:current-layer="layer1"
     showgrid="false"
     inkscape:window-width="769"
     inkscape:window-height="729"
     inkscape:window-x="545"
     inkscape:window-y="0"
     inkscape:window-maximized="0" />
  <metadata
     id="metadata5">
    <rdf:RDF>
      <cc:Work
         rdf:about="">
        <dc:format>image/svg+xml</dc:format>
        <dc:type
           rdf:resource="http://purl.org/dc/dcmitype/StillImage" />
        <dc:title></dc:title>
      </cc:Work>
    </rdf:RDF>
  </metadata>
  <g
     inkscape:label="Capa 1"
     inkscape:groupmode="layer"
     id="layer1">
    <path
       style="font-style:normal;font-weight:normal;font-size:40px;line-height:1.25;font-family:sans-serif;letter-spacing:0px;word-spacing:0px;fill:#000080;fill-opacity:1;stroke:none;stroke-width:1.18531764"
       d="m 140.96204,69.562406 c 0,12.797732 0,25.595452 0,38.393184 7.13716,-1.40049 15.74069,3.51229 22.04413,-2.29424 7.5989,-6.866203 7.68955,-21.795918 -1.16448,-27.644287 -3.60347,-1.959911 -8.17205,-1.771789 -11.78604,0.0625 2.66545,-8.137075 -2.68554,-14.577095 -9.09361,-9.702477 z m -46.910336,7.088756 c -4.393723,0.228612 -8.609933,2.716025 -10.832226,6.533139 1.658437,-5.09344 -2.069316,-6.172719 -6.17893,-5.815465 -2.046155,-0.760333 -6.215355,3.369443 -5.604798,-0.01389 -10.502519,-3.125149 -9.693492,5.061247 -9.093603,13.038494 1.732614,5.701864 -4.266586,19.13553 4.741271,17.56215 8.513354,1.136 2.602696,-12.15204 4.352332,-17.779762 -0.232548,-4.617144 8.133507,-4.312731 9.989548,-2.789669 -2.380236,8.131362 1.299499,20.046031 11.225788,20.161981 1.81203,0.74337 6.066514,-1.5433 6.130308,-0.34958 -3.911228,4.61126 -10.42539,-0.37213 -15.23318,0.25235 -0.262915,4.68725 -1.149877,10.1134 4.868597,9.81127 7.640273,1.96493 18.236869,-0.67574 19.460509,-9.73719 1.2179,-9.982082 0.061,-20.132833 0.4607,-30.170044 -5.05644,0.584315 -9.354185,-0.426856 -14.286316,-0.703782 z m 29.873706,0 c -10.50116,-0.121602 -15.68155,11.964821 -13.06859,20.956048 1.65091,11.69758 18.8704,15.0922 25.20189,5.4057 6.65873,-9.833845 1.83106,-27.520348 -12.1333,-26.361748 z m 58.9464,0 c -10.95517,-0.167817 -16.75748,12.57392 -13.38344,21.95616 3.08661,10.602298 16.80324,12.028398 25.40099,7.605018 3.39907,-1.99625 2.11761,-13.442992 -3.42168,-8.197677 -4.01698,2.705737 -11.92818,3.399837 -13.37186,-2.537315 5.7327,-1.717193 18.72272,3.82291 18.79377,-3.555953 0.92582,-8.461875 -5.08364,-16.185381 -14.01778,-15.270233 z M 43.80998,76.75534 c -4.054528,0.666919 -11.387693,-0.122811 -9.572829,5.896492 -1.757137,8.315122 6.996507,1.959461 11.380901,2.673911 2.216745,-0.237775 5.394211,1.385802 1.27767,1.145906 -6.301707,0.05668 -14.579559,2.892566 -14.890302,10.329912 -4.414166,0.380878 -11.413837,6.719899 -14.723867,0.340317 -2.692917,-5.015352 0.308376,-14.223527 7.218399,-11.508225 3.320298,1.218103 9.487261,6.209843 8.459279,-0.703782 C 35.125803,77.988378 26.582983,76.825096 21.451,76.771555 11.138867,76.555768 5.0993827,87.95927 7.6624233,97.132621 9.1259018,107.56509 22.096186,111.23206 30.500623,106.61053 c 3.820477,0.56052 1.402617,-6.18037 3.542062,-2.08819 3.533711,4.78494 10.549539,5.13743 15.543404,2.62991 8.042015,4.52366 10.922882,-3.01812 9.070455,-11.049836 C 59.266201,89.596739 59.528926,79.599296 51.428887,77.547096 48.96868,76.805159 46.364565,76.668337 43.80998,76.75534 Z m 140.21937,8.23241 c 3.27686,-0.163444 4.90179,4.022671 -0.0301,2.414622 -4.39614,1.165665 -6.70396,-0.98635 -2.1785,-2.284984 0.72478,-0.151993 1.47133,-0.175498 2.20859,-0.129638 z m -59.0529,0.148164 c 6.21987,0.862746 6.22591,10.993323 2.18312,14.429844 -6.45504,3.274442 -9.24018,-5.98589 -7.18368,-10.674793 0.43064,-2.379205 2.56425,-4.050455 5.00056,-3.755051 z M 96.035724,85.30954 c 5.979406,-0.421227 2.692734,8.992127 2.717898,12.216642 -3.512084,2.582988 -9.737977,1.266274 -8.658377,-4.238898 -0.528877,-3.797319 1.265741,-8.698571 5.940479,-7.977744 z m 59.409406,0.219935 c 5.45595,0.949878 4.65618,9.796461 1.95624,13.302405 -3.29146,2.64397 -9.82348,1.166874 -7.34572,-4.248155 -0.50511,-5.29639 -0.72624,-9.107767 5.38948,-9.05425 z M 49.586089,97.996148 c -1.963735,2.772742 -11.022834,2.812002 -7.609647,-1.898369 2.737527,-1.217392 9.451236,-3.48321 7.609647,1.898369 z"
       id="flowRoot3743"
       inkscape:connector-curvature="0" />
    <flowRoot
       xml:space="preserve"
       id="flowRoot3713"
       style="fill:black;fill-opacity:1;stroke:none;font-family:sans-serif;font-style:normal;font-weight:normal;font-size:40px;line-height:1.25;letter-spacing:0px;word-spacing:0px"><flowRegion
         id="flowRegion3715"><rect
           id="rect3717"
           width="742.85712"
           height="300"
           x="28.571428"
           y="462.51968" /></flowRegion><flowPara
         id="flowPara3719"></flowPara></flowRoot>    <flowRoot
       xml:space="preserve"
       id="flowRoot3721"
       style="font-style:normal;font-weight:normal;font-size:40px;line-height:1.25;font-family:sans-serif;letter-spacing:0px;word-spacing:0px;fill:#000000;fill-opacity:1;stroke:none"
       transform="matrix(1.1853176,0,0,1.1853176,-63.935853,-570.5716)"><flowRegion
         id="flowRegion3723"><rect
           id="rect3725"
           width="528.57141"
           height="291.42856"
           x="60"
           y="533.94824" /></flowRegion><flowPara
         id="flowPara3727">cargobe</flowPara></flowRoot>    <flowRoot
       transform="matrix(1.1833308,0,0,1.1853176,-63.812572,-570.5716)"
       style="font-style:normal;font-weight:normal;font-size:40px;line-height:1.25;font-family:sans-serif;letter-spacing:0px;word-spacing:0px;fill:#000000;fill-opacity:1;stroke:none"
       id="flowRoot3735"
       xml:space="preserve"><flowRegion
         id="flowRegion3731"><rect
           y="533.94824"
           x="60"
           height="291.42856"
           width="528.57141"
           id="rect3729" /></flowRegion><flowPara
         id="flowPara3733">cargobe</flowPara></flowRoot>  </g>
</svg>
